<svg width="24" height="24" viewBox="0 0 24 24" fill="none" xmlns="http://www.w3.org/2000/svg">
<path fill-rule="evenodd" clip-rule="evenodd" d="M6.78062 18.8261C6.7847 18.827 6.78879 18.8274 6.79287 18.8274C6.78976 18.8274 6.78617 18.8269 6.78212 18.8259L6.78062 18.8261ZM6.62528 18.7371C6.61229 18.7293 6.60059 18.7227 6.5902 18.7175C6.60059 18.7227 6.61229 18.7293 6.62528 18.7371ZM6.62528 18.7371C6.63827 18.745 6.65256 18.7541 6.66815 18.7646C6.65256 18.7541 6.63827 18.745 6.62528 18.7371ZM19 7.57399C19 7.72048 18.9428 7.84865 18.8285 7.95852C18.7142 8.06839 18.5791 8.12332 18.4232 8.12332H18.1114V17.9013C18.1114 18.2048 18.0022 18.4638 17.784 18.6783C17.5657 18.8928 17.3059 19 17.0045 19H7.15145C6.85004 19 6.5902 18.8928 6.37194 18.6783C6.15367 18.4638 6.04454 18.2048 6.04454 17.9013V8.12332H5.56125C5.40534 8.12332 5.27283 8.06839 5.1637 7.95852C5.05457 7.84865 5 7.71786 5 7.56614C5 7.41442 5.05457 7.28363 5.1637 7.17377C5.27283 7.0639 5.40534 7.00897 5.56125 7.00897H8.44543V6.09865C8.44543 5.79522 8.55197 5.53625 8.76503 5.32175C8.9781 5.10725 9.24053 5 9.55234 5H14.4477C14.7491 5 15.0089 5.10725 15.2272 5.32175C15.4454 5.53625 15.5546 5.79522 15.5546 6.09865V7.00897H18.4232C18.5895 7.00897 18.7272 7.0639 18.8363 7.17377C18.9454 7.28363 19 7.41704 19 7.57399ZM9.53675 6.11435V7.00897H14.4477V6.11435H9.53675ZM17.0045 17.9013V8.12332H7.15145V17.9013H17.0045ZM12.3742 10.1794C12.4885 10.284 12.5457 10.4148 12.5457 10.5717V15.8139C12.5457 15.9709 12.4911 16.1043 12.382 16.2141C12.2728 16.324 12.1429 16.3789 11.9922 16.3789C11.8415 16.3789 11.7116 16.324 11.6024 16.2141C11.4933 16.1043 11.4388 15.9709 11.4388 15.8139V10.5717C11.4388 10.4148 11.4933 10.2814 11.6024 10.1715C11.7116 10.0617 11.8415 10.0067 11.9922 10.0067C12.1429 10.0067 12.2702 10.0643 12.3742 10.1794ZM9.34967 10.1794C9.46399 10.284 9.52116 10.4148 9.52116 10.5717V15.8139C9.52116 15.9709 9.46659 16.1043 9.35746 16.2141C9.24833 16.324 9.11581 16.3789 8.95991 16.3789C8.80401 16.3789 8.67149 16.324 8.56236 16.2141C8.45323 16.1043 8.39866 15.9709 8.39866 15.8139V10.5717C8.39866 10.4148 8.45323 10.2814 8.56236 10.1715C8.67149 10.0617 8.80401 10.0067 8.95991 10.0067C9.11581 10.0067 9.24573 10.0643 9.34967 10.1794ZM15.3831 10.1794C15.4974 10.284 15.5546 10.4148 15.5546 10.5717V15.8139C15.5546 15.9709 15.5 16.1043 15.3909 16.2141C15.2817 16.324 15.1492 16.3789 14.9933 16.3789C14.8374 16.3789 14.7049 16.324 14.5958 16.2141C14.4866 16.1043 14.4321 15.9709 14.4321 15.8139V10.5717C14.4321 10.4148 14.4866 10.2814 14.5958 10.1715C14.7049 10.0617 14.8374 10.0067 14.9933 10.0067C15.1492 10.0067 15.2791 10.0643 15.3831 10.1794Z" fill="#78909C"/>
</svg>
