<svg width="24" height="24" viewBox="0 0 24 24" fill="none" xmlns="http://www.w3.org/2000/svg">
<path fill-rule="evenodd" clip-rule="evenodd" d="M21.7852 7.23438C21.8372 7.3125 21.8698 7.40365 21.8828 7.50781C21.8958 7.61198 21.8893 7.70963 21.8633 7.80078L18.875 16.5898C18.8359 16.707 18.7611 16.8047 18.6504 16.8828C18.5397 16.9609 18.4193 17 18.2891 17H9.85156C9.72135 17 9.60091 16.9577 9.49023 16.873C9.37956 16.7884 9.30469 16.681 9.26562 16.5508L5.80859 3.85547C5.71745 3.54297 5.61979 3.36068 5.51562 3.30859C5.41146 3.25651 5.33333 3.23047 5.28125 3.23047H2.60547C2.4362 3.23047 2.29297 3.17188 2.17578 3.05469C2.05859 2.9375 2 2.79427 2 2.625C2 2.44271 2.05859 2.29297 2.17578 2.17578C2.29297 2.05859 2.4362 2 2.60547 2H5.28125C5.47656 2 5.76302 2.08138 6.14062 2.24414C6.51823 2.4069 6.80469 2.82682 7 3.50391L8.01562 6.96094H21.2773C21.3685 6.96094 21.4596 6.98698 21.5508 7.03906C21.6419 7.09115 21.7201 7.15625 21.7852 7.23438ZM17.8594 15.75L20.3789 8.21094H8.34766L10.3398 15.75H17.8594ZM16.6289 18.25C17.0586 18.25 17.4264 18.403 17.7324 18.709C18.0384 19.015 18.1914 19.3828 18.1914 19.8125C18.1914 20.2422 18.0384 20.61 17.7324 20.916C17.4264 21.222 17.0586 21.375 16.6289 21.375C16.1992 21.375 15.8314 21.222 15.5254 20.916C15.2194 20.61 15.0664 20.2422 15.0664 19.8125C15.0664 19.3828 15.2194 19.015 15.5254 18.709C15.8314 18.403 16.1992 18.25 16.6289 18.25ZM11.0039 18.25C11.4336 18.25 11.8014 18.403 12.1074 18.709C12.4134 19.015 12.5664 19.3828 12.5664 19.8125C12.5664 20.2422 12.4134 20.61 12.1074 20.916C11.8014 21.222 11.4336 21.375 11.0039 21.375C10.5742 21.375 10.2064 21.222 9.90039 20.916C9.5944 20.61 9.44141 20.2422 9.44141 19.8125C9.44141 19.3828 9.5944 19.015 9.90039 18.709C10.2064 18.403 10.5742 18.25 11.0039 18.25Z" fill="#78909C"/>
</svg>
